<svg width="1024" height="1024" viewBox="0 0 1024 1024" xmlns="http://www.w3.org/2000/svg" style="display:block" preserveAspectRatio="xMidYMid meet"><svg x="276" y="574" width="471" height="131" xmlns="http://www.w3.org/2000/svg" style="display:block" preserveAspectRatio="none"><svg version="1.1" xmlns="http://www.w3.org/2000/svg" style="display: block;" width="471" height="131" viewBox="119.01 35.46 1808.40 502.97" preserveAspectRatio="none"><g id="svg-group-d73f80f3-d2ab-4f15-9f5b-44222880c6d0">
<path transform="translate(0,0)" fill="rgba(0, 0, 0, 1)" d="M 484.655 190.4 C 494.74 187.954 626.486 189.773 640.636 191.229 C 645.643 191.745 649.835 192.813 654.189 195.403 C 663.684 201.05 687.593 225.493 694.914 234.606 C 700.475 241.529 703.422 247.961 704.649 256.767 C 706.083 267.06 705.193 278.166 705.155 288.586 L 704.921 348.66 L 705.091 418.13 C 705.142 430.82 705.361 446.792 704.497 459.104 C 702.504 487.47 667.645 512.754 646.35 529.754 C 642.357 529.927 638.024 530.635 634.036 531.202 C 621.764 535.744 587.056 534.068 572.756 534.061 L 475.117 533.854 C 458.261 524.278 443.06 505.865 428.962 492.854 C 416.165 481.043 415.935 473.297 415.918 456.711 C 415.899 438.1 415.903 419.376 415.905 400.727 L 416.093 243.753 C 416.327 243.451 416.565 243.153 416.809 242.859 C 427.338 230.063 455.072 200.523 469.511 193.194 C 473 191.423 480.47 190.8 484.655 190.4 z M 494.176 268.1 C 494.119 289.584 492.747 445.552 495.585 451.067 C 499.295 454.673 501.869 454.213 506.783 454.147 C 508.772 454.118 510.761 454.07 512.75 454.006 L 582.555 454.038 C 593.748 454.048 604.938 454.26 616.122 454.015 C 622.787 453.869 623.483 450.986 626.845 445.747 L 626.958 337.724 C 626.974 316.702 627.871 294.844 625.65 274.026 C 625.017 268.093 619.195 265.968 613.982 266.042 C 611.822 266.086 609.663 266.18 607.508 266.325 C 593.354 268.713 584.224 266.998 570.841 267.52 C 545.23 268.519 519.65 267.548 494.176 268.1 z"/>
<path transform="translate(0,0)" fill="rgba(0, 0, 0, 1)" d="M 832.711 190.413 C 836.244 189.598 870.187 189.841 875.96 189.839 C 901.927 189.598 927.896 189.767 953.857 190.347 C 967.808 190.622 991.634 187.918 1000.77 198.383 C 1015.52 215.278 1045.18 233.068 1045.09 257.549 C 1044.99 325.619 1045.17 392.727 1044.91 460.88 C 1044.81 486.036 1012.96 512.595 993.75 526.373 C 989.87 529.155 979.429 531.196 973.948 533.537 C 949.59 535.481 914.869 533.225 889.498 534.063 C 872.325 534.631 839.889 534.33 823.338 533.038 C 802.572 531.417 770.349 492.077 758.224 475.041 C 757.135 450.07 757.928 419.056 757.927 393.678 L 758.017 247.223 C 766.453 232.6 795.272 201.836 811.241 193.156 C 813.82 191.755 828.525 190.759 832.711 190.413 z M 836.606 453.921 C 851.21 453.943 960.844 455.239 964.458 452.544 C 968.892 426.369 966.575 396.519 966.998 369.741 C 967.534 335.826 965.281 302.091 964.93 268.077 L 835.975 267.968 L 836.045 392.78 C 836.04 406.03 835.151 441.84 836.606 453.921 z"/>
<path transform="translate(0,0)" fill="rgba(0, 0, 0, 1)" d="M 1255.11 40.1136 C 1294.89 38.7077 1311.69 37.6486 1311.05 85.001 C 1310.87 98.6921 1311.1 114.29 1311.1 128.124 L 1311.03 255.673 C 1311 269.031 1310.24 281.897 1309.98 295.203 C 1309.59 314.653 1310.03 318.078 1328.65 316.963 C 1339.99 309.668 1353.04 290.411 1362.02 279.284 C 1374.03 264.397 1385.79 249.939 1398.2 235.283 C 1407.34 223.334 1416.33 212.889 1425.94 201.126 C 1439.57 184.447 1472.93 182.962 1488.89 196.455 C 1497.63 203.844 1499.79 232.075 1493.17 241.596 C 1483.69 255.259 1471.78 268.906 1461.25 282.178 L 1417.98 336.024 C 1410.75 344.948 1405.13 353.432 1397 361.695 C 1426.67 400.358 1461.91 436.382 1492.57 474.993 C 1503.23 492.876 1497.2 521.588 1479.88 533.96 C 1470.46 534.007 1450.35 535.504 1442.8 531.503 C 1427.5 522.659 1418.15 507.815 1406.76 494.924 C 1380.73 465.447 1356.37 434.404 1330.04 405.243 C 1326.43 401.245 1322.53 395.385 1318.68 392.196 C 1310.43 390.781 1311.09 400.41 1310.73 406.517 C 1308.85 438.274 1315.9 490.639 1307.2 519.497 C 1301.49 538.435 1249.39 537.821 1239.3 520.104 C 1230.31 504.314 1232.92 468.184 1232.91 448.242 L 1232.89 360.874 C 1232.88 277.968 1231.67 194.517 1234.6 111.708 C 1235.24 93.6492 1233.48 74.1889 1237.45 56.6364 C 1239.12 49.2269 1248.77 43.1097 1255.11 40.1136 z"/>
<path transform="translate(0,0)" fill="rgba(0, 0, 0, 1)" d="M 1772.05 85.3987 C 1777.86 85.248 1783.67 85.1504 1789.48 85.1059 C 1816.48 84.9965 1823.41 94.3941 1823.88 120.099 C 1824.26 141.256 1824.02 162.498 1824.08 183.654 C 1825.94 185.69 1828.71 188.051 1830.81 189.947 C 1851.6 190.164 1872.73 189.088 1893.28 189.825 C 1917.72 190.701 1920.83 215.504 1919.01 234.658 C 1917.88 246.542 1914 255.755 1904.85 263.526 C 1893.82 265.684 1880.5 266.917 1869.27 267.343 C 1852.53 267.977 1838.79 262.01 1823.91 272.057 L 1823.94 384.846 C 1823.92 403.365 1822.82 422.606 1824.19 441.057 C 1824.44 444.476 1825.14 452.002 1827.54 454.67 C 1832.88 460.591 1892.12 457.737 1903.65 458.045 C 1910.94 461.959 1913.76 466.212 1918.9 472.57 C 1919.27 486.33 1918.99 501.488 1919.01 515.361 C 1917.02 517.373 1914.2 520.885 1912.28 523.146 C 1907.1 530.44 1895.23 533.515 1886.89 533.684 C 1861.21 534.205 1831.63 534.1 1806.27 533.864 C 1789.09 533.704 1753.98 499.895 1750.09 484.679 C 1746.76 471.621 1747.78 444.04 1747.78 429.549 L 1747.79 322.979 C 1747.77 312.78 1749.88 276.24 1744.99 270.015 C 1739.49 266.717 1728.27 268.021 1721.89 267.59 C 1704.03 266.384 1691.65 267.755 1678.59 254.316 C 1676.75 244.337 1676.78 213.325 1678.16 202.905 C 1681.68 198.089 1683.53 196.167 1687.83 191.981 C 1696.5 191.747 1705.46 190.736 1714.18 190.271 C 1722.98 189.801 1733.54 190.646 1742.03 189.142 C 1763.73 174.295 1723.15 95.749 1772.05 85.3987 z"/>
<path transform="translate(0,0)" fill="rgba(0, 0, 0, 1)" d="M 224.517 85.3817 C 238.442 84.9617 255.884 82.9947 267.109 92.8974 C 279.363 103.707 275.728 123.239 275.837 138.04 C 275.966 155.362 275.232 172.492 276.148 189.858 C 298.949 190.475 326.214 187.88 348.422 191.93 C 356.483 193.4 359.047 196.784 362.878 203.353 C 363.404 217.512 367.273 251.022 356.149 259.847 C 342.734 270.489 293.325 268.025 275.935 268.069 C 274.768 304.506 276.381 344.212 275.663 380.96 C 275.446 392.073 275.006 446.009 276.951 453.355 C 285.266 464.025 342.624 453.177 354.564 459.193 C 370.902 467.423 369.795 506.697 361.719 520.6 C 357.678 527.556 354.813 528.722 347.518 530.828 C 343.378 532.158 339.278 533.306 334.931 533.709 C 321.018 535 306.457 533.94 292.451 533.888 C 280.819 533.844 268.754 534.972 257.213 533.457 C 252.134 532.79 247.344 531.152 242.74 528.935 C 228.136 521.901 206.402 502.536 200.672 487.205 C 195.162 472.464 199.271 335.856 199.219 307.557 C 199.203 298.756 201.586 279.79 198.546 272.114 C 195.856 265.323 160.884 267.955 152.857 266.921 C 147.401 266.219 142.292 264.058 137.216 262.035 C 125.591 246.724 128.83 226.512 129.108 207.089 C 133.775 200.172 136.895 196.749 143.806 192.134 C 161.155 189.797 178.762 193.464 194.306 190.438 C 196.144 188.775 198.014 186.364 199.623 184.421 C 198.959 168.825 196.107 105.35 203.836 94.9209 C 208.688 88.3748 216.922 86.561 224.517 85.3817 z"/>
<path transform="translate(0,0)" fill="rgba(0, 0, 0, 1)" d="M 1128.36 36.224 C 1141.24 35.4608 1159.76 36.9414 1169.8 46.3758 C 1172.1 48.5352 1175.84 56.5861 1175.91 59.8612 C 1176.29 77.5911 1176.12 95.4046 1176.12 113.154 L 1176.12 222.305 L 1176.13 406.62 C 1176.15 439.361 1176.27 472.201 1176.08 504.949 C 1176.01 517.128 1173.11 520.925 1164.17 529.437 C 1158.78 530.286 1151.62 530.876 1147.25 533.852 C 1138.17 534.949 1122.9 531.594 1114.72 527.623 C 1109.24 524.96 1105.76 521.273 1103.81 515.482 C 1096.98 495.152 1099.9 427.445 1099.89 402.168 L 1099.87 265.895 L 1099.89 141.304 C 1099.89 119.231 1099.58 97.0673 1100.13 75.0067 C 1100.73 50.9132 1106.29 43.5245 1128.36 36.224 z"/>
<path transform="translate(0,0)" fill="rgba(0, 0, 0, 1)" d="M 1573.23 188.177 C 1584.46 187.896 1621.55 184.314 1627.3 198.318 C 1629.55 203.78 1631.8 225.493 1631.83 231.751 C 1632.35 317.603 1632.36 403.55 1631.83 489.405 C 1631.78 498.265 1629.82 511.42 1627.52 520.052 C 1625.73 526.765 1616.07 530.296 1610.24 532.633 C 1599.39 537.53 1565.14 532.252 1557.78 520.957 C 1555.06 505.379 1555.89 486.86 1555.88 470.756 L 1555.87 401.399 L 1555.9 264.588 C 1555.83 243.893 1553.09 220.49 1556.62 199.939 C 1557.57 194.435 1568.34 190.334 1573.23 188.177 z"/>
<path transform="translate(0,0)" fill="rgba(0, 0, 0, 1)" d="M 1571.88 66.3141 C 1583.65 66.1699 1609.41 64.9761 1619.11 68.2495 C 1635.66 73.837 1633.07 112.533 1627.96 125.923 C 1625.67 131.901 1620.34 133.526 1614.83 136.008 C 1601.33 140.507 1579.22 140.581 1566.29 134.45 C 1553.66 128.337 1555.44 114.072 1556.02 102.402 C 1556.93 84.2499 1549.55 71.506 1571.88 66.3141 z"/>
</g></svg></svg><svg x="398" y="319" width="229" height="249" xmlns="http://www.w3.org/2000/svg" style="display:block" preserveAspectRatio="none"><svg version="1.1" xmlns="http://www.w3.org/2000/svg" style="display: block;" width="229" height="249" viewBox="0.00 -2.00 1832.00 1992.00" preserveAspectRatio="none"><g id="svg-group-2a80e2c5-d993-45ab-8136-60c0b637991a">
<path transform="translate(0,0)" fill="rgba(0, 0, 0, 1)" d="M 1294.54 0 L 1302.52 0 C 1310.99 8.84685 1320.66 7.09168 1329.97 12.1941 C 1344.23 20.0152 1359 28.7531 1373.11 36.9124 L 1551.51 139.999 C 1560.94 145.395 1571.11 150.078 1580.49 155.521 C 1591.99 162.192 1603.13 169.717 1614.73 176.295 C 1650.59 196.63 1686.23 217.492 1721.93 238.114 C 1731.19 243.46 1741.49 252.038 1750.4 257.075 C 1769.65 267.97 1791.59 278.148 1809.32 291.69 C 1817.32 297.804 1823.05 312.445 1832 322.248 L 1832 1069.79 C 1825.4 1077.28 1820.94 1086.6 1814.34 1094.67 C 1804.33 1106.91 1790.73 1112.41 1778.67 1121.57 C 1758.7 1136.73 1738.08 1146.17 1716.59 1158.28 L 1595.19 1227.39 L 1375.32 1355.82 C 1363.32 1362.87 1351.68 1373.09 1339.67 1379.89 L 1267.25 1420.43 C 1255.04 1427.33 1236.51 1434.75 1228.61 1446.3 C 1227.83 1465.59 1228.27 1487.22 1228.29 1506.68 L 1228.3 1603.62 C 1228.33 1625.17 1229.86 1648.66 1226.89 1670.14 C 1217.61 1737.18 1122.1 1744.92 1082.26 1702.8 C 1065.01 1684.56 1067.64 1645.59 1067.72 1621.65 L 1067.84 1553.69 L 1067.77 1454.94 C 1067.76 1424.31 1062.94 1358.64 1089.8 1339.61 C 1130.08 1311.09 1175.9 1287.29 1218.37 1262.2 L 1546.93 1069.88 L 1626.11 1025.13 C 1637.96 1018.31 1649.79 1013.02 1660.43 1004.36 C 1667.59 998.532 1669.2 994.241 1669.91 984.745 C 1672.68 947.689 1671.81 909.862 1671.81 872.659 L 1671.79 702.233 L 1671.8 498.462 C 1671.8 472.998 1671.78 447.705 1672.96 422.183 C 1673.22 416.461 1670.59 402.854 1667.16 397.674 C 1639.09 371.113 1593.55 349.618 1559.83 330.432 C 1541.01 319.725 1526.08 309.218 1507.77 299.224 C 1487.31 288.054 1468.48 277.936 1448.25 267.157 C 1436.5 260.89 1417.04 242.635 1405.92 239.406 C 1398.98 240.827 1397.16 244.171 1392.96 249.98 C 1391.84 265.893 1392.29 284.482 1392.29 300.67 L 1392.3 379.409 L 1392.34 630.411 L 1392.35 704.505 C 1392.35 730.86 1396.37 779.669 1374.68 797.472 C 1360.29 809.275 1337.16 818.662 1320.93 828.517 L 1205.69 898.862 C 1195.9 904.782 1186.95 911.793 1177.36 917.662 C 1173.08 920.286 1163.59 921.547 1157.94 924.947 L 1079.7 972.202 C 1066.1 980.588 1052.79 989.534 1039.04 997.668 C 1028 1004.2 1016.45 1009.78 1005.32 1016.13 C 990.519 1024.58 976.244 1034.81 961.036 1042.4 C 951.022 1047.4 926.544 1056.84 915.653 1055.65 C 904.297 1054.4 888.857 1048.7 878.657 1043.55 C 860.428 1034.35 841.55 1024.23 824.338 1013.25 C 814.654 1007.07 805.509 999.714 795.622 993.925 C 788.041 989.486 779.245 987.225 771.567 982.872 C 751.456 971.469 731.927 958.796 711.853 947.272 C 693.525 936.752 674.353 927.541 656.214 916.719 C 646.125 910.699 636.686 903.614 626.542 897.704 C 592.434 877.834 467.709 812.457 449.785 789.006 C 443.956 781.379 441.106 771.086 440.339 761.628 C 438.586 740.028 439.711 717.674 439.717 695.971 C 439.726 665.963 439.079 635.751 439.956 605.766 C 440.338 592.709 442.424 579.528 442.264 566.508 L 440.547 363.522 C 440.018 329.42 439.31 295.443 439.769 261.314 C 439.793 259.486 441.707 255.629 442.547 253.936 C 440.258 249.487 434.244 243.882 430.766 239.555 C 411.332 251.479 390.202 261.937 370.887 273.531 C 325.031 301.056 278.545 328.254 233.311 356.709 C 215.814 367.716 175.151 387.279 164.464 402.488 C 163.459 444.349 164.255 489.642 164.266 531.793 L 164.292 772.639 L 164.257 921.898 C 164.253 945.152 163.158 980.699 164.99 1003.04 C 195.542 1025.88 238.149 1046.19 272.013 1065.03 C 381.356 1125.86 488.133 1191.92 597.238 1252.94 L 684.125 1302.61 C 705.322 1314.65 760.661 1340.99 763.469 1369.2 C 765.659 1391.2 764.366 1424.23 764.348 1447.29 L 764.297 1606.14 L 764.331 1827.95 L 764.371 1897.02 C 764.391 1909.69 764.731 1922.55 764.136 1935.28 C 763.608 1946.56 760.758 1950.04 754.608 1958.72 C 745.086 1972.16 728.794 1978.3 717.962 1988 L 653.851 1988 C 643.803 1978.13 627.926 1973.72 619.632 1960.49 C 603.703 1935.1 607.717 1896.69 607.767 1867.35 L 607.84 1760.48 C 607.693 1742.5 604.164 1723.91 603.932 1706.75 C 603.484 1673.63 603.967 1640.62 603.773 1607.37 C 604.061 1574.64 603.145 1541.76 603.88 1509.05 C 604.241 1493 604.317 1476.79 604.965 1460.77 C 605.139 1456.46 605.927 1450.24 603.405 1446.56 C 592.478 1430.61 570.938 1425.72 555.546 1415.5 C 545.233 1408.65 537.135 1402.81 526.931 1396.27 C 502.891 1382.89 479.26 1369.4 455.539 1355.37 C 437.607 1344.76 420.893 1333.24 402.813 1323.06 C 326.481 1280.08 250.195 1237.14 174.307 1193.39 C 168.097 1189.81 161.866 1184.06 155.859 1180.67 C 146.5 1175.39 136.329 1171.12 126.887 1165.77 C 92.0732 1146.08 59.7894 1127.76 28.224 1102.83 C 17.2304 1094.15 8.28403 1080.5 0 1069.14 L 0 317.721 C 8.54621 308.066 23.1586 292.99 33.4289 285.971 C 68.1283 262.255 104.726 242.807 140.88 221.977 L 284.196 138.352 C 292.392 133.517 300.323 127.861 308.495 122.908 L 383.547 78.2594 C 405.016 65.6335 428.545 52.6487 449.852 40.9588 C 480.773 25.9451 497.827 3.85811 534.494 6.60832 C 583.912 10.3149 590.347 21.9245 603.637 66.0976 C 598.08 84.5349 602.423 93.3653 602.325 111.107 C 601.697 121.775 601.093 132.528 600.52 143.192 C 598.419 182.338 601.628 219.804 604.375 258.605 C 605.995 281.486 603.401 307.889 603.959 331.01 C 604.285 344.491 599.799 360.827 600.749 374.744 C 600.913 385.176 601.433 395.17 601.681 405.527 C 602.176 414.482 599.958 426.683 601.068 435.33 C 604.214 459.84 604.228 479.454 601.281 503.781 C 600.268 512.143 604.862 529.303 604.239 539.386 C 603.305 554.504 602.406 569.256 600.835 584.346 C 599.984 603.248 600.145 623.482 600.227 642.446 C 600.292 657.275 599.524 675.757 600.912 690.109 C 606.703 696.97 612.811 703.571 620.211 708.735 C 628.166 714.288 637.342 718.424 645.669 723.438 C 669.087 737.54 691.98 752.695 715.41 766.736 C 740.926 782.026 767.309 795.629 793.2 810.211 C 809.799 819.559 903.299 874.766 914.688 876.016 C 920.74 876.681 926.716 873.959 932.007 871.34 C 964.837 855.087 996.751 834.888 1028.23 816.093 C 1038.07 810.221 1048.94 806.306 1058.86 800.597 C 1087.32 784.216 1114.87 766.087 1143.25 749.548 C 1156.76 741.675 1170.36 733.648 1184.1 726.189 C 1195.52 719.988 1208.39 714.929 1218.25 706.363 C 1224.72 700.742 1230.38 693.153 1231.59 684.503 C 1233.72 669.333 1231.94 651.858 1231.86 636.486 L 1231.78 542.07 L 1231.79 231.232 L 1231.78 133.915 C 1231.77 114.547 1231.05 92.8331 1232.44 73.9933 C 1233.94 39.2615 1239.11 19.4959 1275.69 9.21642 C 1280.98 7.72964 1290.28 3.96169 1294.54 0 z"/>
</g></svg></svg></svg>